<svg xmlns="http://www.w3.org/2000/svg"  viewBox="0 0 50 50" width="50px" height="50px"><path d="M 25 40 C 19.699219 40 16 39.5 14 38.398438 C 13.601563 38.199219 13.300781 38.101563 13.101563 38.101563 C 7.101563 37.898438 4.101563 35.800781 2.898438 34.5 C 2.300781 33.898438 2 33.199219 2 32.300781 C 2 27.898438 2.199219 19.800781 3 16.699219 C 3.398438 15.101563 4.898438 14 6.601563 14 C 8.300781 14 10.898438 12.398438 12.601563 10.898438 C 13.398438 10.300781 14.300781 10 15.199219 10 L 34.898438 10 C 35.898438 10 36.898438 10.398438 37.5 11 C 38.800781 12.199219 41.601563 14 43.398438 14 C 45.101563 14 46.601563 15.101563 47 16.699219 C 47.699219 19.398438 48 26.398438 48 32.199219 C 48 33.101563 47.699219 33.800781 47.101563 34.398438 C 45.800781 35.699219 42.898438 37.800781 36.898438 38 C 36.5 38 36.199219 38.101563 36.101563 38.199219 C 34.300781 39.398438 30.601563 40 25 40 Z M 13.101563 36.101563 C 13.601563 36.101563 14.199219 36.300781 14.898438 36.601563 C 15.898438 37.101563 18.398438 38 25 38 C 32 38 34.300781 37 34.898438 36.601563 C 35.398438 36.199219 36.101563 36 36.898438 36 C 42.300781 35.800781 44.898438 33.800781 45.699219 33 C 45.898438 32.800781 46 32.5 46 32.199219 C 46 26.699219 45.699219 19.699219 45 17.300781 C 44.800781 16.601563 44.101563 16.101563 43.398438 16.101563 C 40.699219 16.101563 37.5 13.800781 36.101563 12.5 C 35.699219 12.101563 35.199219 12.101563 34.898438 12.101563 L 15.199219 12.101563 C 14.800781 12.101563 14.300781 12.300781 13.898438 12.601563 C 13.300781 13.101563 9.699219 16 6.601563 16 C 5.800781 16 5.199219 16.5 5 17.199219 C 4.300781 19.699219 4 26.699219 4 32.300781 C 4 32.601563 4.101563 32.898438 4.300781 33.101563 C 5.101563 33.898438 7.699219 35.898438 13.101563 36.101563 Z M 8 18 L 10 18 L 10 24 L 8 24 Z M 6 22 L 6 20 L 12 20 L 12 22 Z M 42.5 18 C 43.300781 18 44 18.699219 44 19.5 C 44 20.300781 43.300781 21 42.5 21 C 41.699219 21 41 20.300781 41 19.5 C 41 18.699219 41.699219 18 42.5 18 Z M 39.5 21 C 40.300781 21 41 21.699219 41 22.5 C 41 23.300781 40.300781 24 39.5 24 C 38.699219 24 38 23.300781 38 22.5 C 38 21.699219 38.699219 21 39.5 21 Z M 11.898438 28.898438 C 12.101563 28.398438 11.898438 27.800781 11.5 27.601563 L 8.5 26.101563 C 8 25.898438 7.398438 26.101563 7.199219 26.5 C 7 27 7.199219 27.601563 7.601563 27.800781 L 10.601563 29.300781 C 10.699219 29.398438 10.898438 29.398438 11 29.398438 C 11.398438 29.5 11.699219 29.300781 11.898438 28.898438 Z M 11.898438 32.898438 C 12.101563 32.398438 11.898438 31.800781 11.5 31.601563 L 8.5 30.101563 C 8 29.898438 7.398438 30.101563 7.199219 30.5 C 7 31 7.199219 31.601563 7.601563 31.800781 L 10.601563 33.300781 C 10.699219 33.398438 10.898438 33.398438 11 33.398438 C 11.398438 33.5 11.699219 33.300781 11.898438 32.898438 Z M 33 33 L 17 33 C 15.800781 33 15 32.199219 15 31 L 15 18 C 15 16.800781 15.800781 16 17 16 L 33 16 C 34.199219 16 35 16.800781 35 18 L 35 31 C 35 32.199219 34.199219 33 33 33 Z M 17 18 L 17 31 L 33 31 L 33 18 Z M 38.699219 28.898438 L 42.699219 26.898438 C 42.898438 26.800781 43 26.5 42.898438 26.199219 C 42.800781 26 42.5 25.898438 42.199219 26 L 38.199219 28 C 38 28.101563 37.898438 28.398438 38 28.699219 C 38.101563 28.898438 38.300781 29 38.398438 29 C 38.601563 29 38.699219 29 38.699219 28.898438 Z M 38.699219 30.898438 L 42.699219 28.898438 C 42.898438 28.800781 43 28.5 42.898438 28.199219 C 42.800781 28 42.5 27.898438 42.199219 28 L 38.199219 30 C 38 30.101563 37.898438 30.398438 38 30.699219 C 38.101563 30.898438 38.300781 31 38.398438 31 C 38.601563 31 38.699219 31 38.699219 30.898438 Z M 38.699219 32.898438 L 42.699219 30.898438 C 42.898438 30.800781 43 30.5 42.898438 30.199219 C 42.800781 30 42.5 29.898438 42.199219 30 L 38.199219 32 C 38 32.101563 37.898438 32.398438 38 32.699219 C 38.101563 32.898438 38.300781 33 38.398438 33 C 38.601563 33 38.699219 33 38.699219 32.898438 Z"/></svg>